<svg xmlns="http://www.w3.org/2000/svg" version="1.1" xmlns:xlink="http://www.w3.org/1999/xlink" xmlns:svgjs="http://svgjs.dev/svgjs" width="1000" height="1000" viewBox="0 0 1000 1000"><rect width="1000" height="1000" fill="#ffffff"></rect><g transform="matrix(0.7,0,0,0.7,149.57575934031217,306.3722625510535)"><svg viewBox="0 0 396 219" data-background-color="#161618" preserveAspectRatio="xMidYMid meet" height="553" width="1000" xmlns="http://www.w3.org/2000/svg" xmlns:xlink="http://www.w3.org/1999/xlink"><g id="tight-bounds" transform="matrix(1,0,0,1,0.23999900176625033,0.04397959524483497)"><svg viewBox="0 0 395.52 218.9120384079359" height="218.9120384079359" width="395.52"><g><svg viewBox="0 0 395.52 218.9120384079359" height="218.9120384079359" width="395.52"><g transform="matrix(1,0,0,1,0,162.88134998772102)"><svg viewBox="0 0 395.52 56.03068842021488" height="56.03068842021488" width="395.52"><g id="textblocktransform"><svg viewBox="0 0 395.52 56.03068842021488" height="56.03068842021488" width="395.52" id="textblock"><g><svg viewBox="0 0 395.52 56.03068842021488" height="56.03068842021488" width="395.52"><g transform="matrix(1,0,0,1,0,0)"><svg width="395.52" viewBox="2.299999952316284 -35.25 251.27999877929688 35.599998474121094" height="56.03068842021488" data-palette-color="#ffffff"><path d="M21.3-35.25L25.35-35.25 25.35 0 21.3 0 21.3-4.45Q20.2-2.15 18.07-0.9 15.95 0.35 13.1 0.35L13.1 0.35Q9.9 0.35 7.45-1.25 5-2.85 3.65-5.73 2.3-8.6 2.3-12.4L2.3-12.4Q2.3-16.15 3.65-19 5-21.85 7.45-23.4 9.9-24.95 13.1-24.95L13.1-24.95Q15.95-24.95 18.07-23.7 20.2-22.45 21.3-20.15L21.3-20.15 21.3-35.25ZM13.9-3Q17.45-3 19.38-5.43 21.3-7.85 21.3-12.3L21.3-12.3Q21.3-16.75 19.38-19.15 17.45-21.55 13.9-21.55L13.9-21.55Q10.35-21.55 8.38-19.15 6.4-16.75 6.4-12.4L6.4-12.4Q6.4-7.95 8.38-5.48 10.35-3 13.9-3L13.9-3ZM53.25-13.05L53.25-11.55 35.45-11.55Q35.65-7.3 37.75-5.13 39.85-2.95 43.7-2.95L43.7-2.95Q47.95-2.95 51.5-5.85L51.5-5.85 52.85-2.9Q51.25-1.4 48.75-0.53 46.25 0.35 43.65 0.35L43.65 0.35Q37.95 0.35 34.67-3 31.4-6.35 31.4-12.25L31.4-12.25Q31.4-16 32.85-18.88 34.3-21.75 36.92-23.35 39.55-24.95 42.9-24.95L42.9-24.95Q47.75-24.95 50.5-21.78 53.25-18.6 53.25-13.05L53.25-13.05ZM42.95-21.8Q39.75-21.8 37.82-19.8 35.9-17.8 35.55-14.15L35.55-14.15 49.7-14.15Q49.6-17.85 47.85-19.83 46.1-21.8 42.95-21.8L42.95-21.8ZM68.1-4.4L76.35-24.3 80.4-24.3 69.9 0 66.1 0 55.65-24.3 59.95-24.3 68.1-4.4ZM96.84-24.95Q100.04-24.95 102.49-23.4 104.94-21.85 106.29-19 107.64-16.15 107.64-12.4L107.64-12.4Q107.64-8.6 106.29-5.73 104.94-2.85 102.49-1.25 100.04 0.35 96.84 0.35L96.84 0.35Q93.99 0.35 91.87-0.9 89.74-2.15 88.64-4.45L88.64-4.45 88.64 0 84.59 0 84.59-35.25 88.64-35.25 88.64-20.15Q89.74-22.45 91.87-23.7 93.99-24.95 96.84-24.95L96.84-24.95ZM96.04-3Q99.59-3 101.54-5.48 103.49-7.95 103.49-12.4L103.49-12.4Q103.49-16.75 101.54-19.15 99.59-21.55 96.04-21.55L96.04-21.55Q92.49-21.55 90.57-19.15 88.64-16.75 88.64-12.3L88.64-12.3Q88.64-7.85 90.57-5.43 92.49-3 96.04-3L96.04-3ZM130.14-24.35L134.19-24.35 134.19 0 130.24 0 130.24-4.15Q129.09-1.95 127.02-0.8 124.94 0.35 122.34 0.35L122.34 0.35Q117.99 0.35 115.79-2.08 113.59-4.5 113.59-9.25L113.59-9.25 113.59-24.35 117.64-24.35 117.64-9.35Q117.64-6.1 118.94-4.58 120.24-3.05 123.04-3.05L123.04-3.05Q126.24-3.05 128.19-5.13 130.14-7.2 130.14-10.6L130.14-10.6 130.14-24.35ZM149.99 0.35Q143.84 0.35 140.24-2.8L140.24-2.8 141.59-5.8Q143.54-4.25 145.56-3.58 147.59-2.9 150.14-2.9L150.14-2.9Q152.84-2.9 154.26-3.83 155.69-4.75 155.69-6.5L155.69-6.5Q155.69-7.95 154.74-8.8 153.79-9.65 151.59-10.15L151.59-10.15 147.49-11.1Q144.39-11.8 142.74-13.5 141.09-15.2 141.09-17.7L141.09-17.7Q141.09-20.95 143.64-22.95 146.19-24.95 150.44-24.95L150.44-24.95Q152.99-24.95 155.29-24.13 157.59-23.3 159.14-21.75L159.14-21.75 157.79-18.8Q154.44-21.65 150.44-21.65L150.44-21.65Q147.89-21.65 146.46-20.68 145.04-19.7 145.04-17.95L145.04-17.95Q145.04-16.5 145.91-15.63 146.79-14.75 148.74-14.3L148.74-14.3 152.89-13.3Q156.29-12.5 157.94-10.88 159.59-9.25 159.59-6.65L159.59-6.65Q159.59-3.45 157.01-1.55 154.44 0.35 149.99 0.35L149.99 0.35ZM164.89 0L164.89-5.1 169.99-5.1 169.99 0 164.89 0ZM194.48-35.25L198.53-35.25 198.53 0 194.48 0 194.48-4.45Q193.38-2.15 191.26-0.9 189.13 0.35 186.28 0.35L186.28 0.35Q183.08 0.35 180.63-1.25 178.18-2.85 176.83-5.73 175.48-8.6 175.48-12.4L175.48-12.4Q175.48-16.15 176.83-19 178.18-21.85 180.63-23.4 183.08-24.95 186.28-24.95L186.28-24.95Q189.13-24.95 191.26-23.7 193.38-22.45 194.48-20.15L194.48-20.15 194.48-35.25ZM187.08-3Q190.63-3 192.56-5.43 194.48-7.85 194.48-12.3L194.48-12.3Q194.48-16.75 192.56-19.15 190.63-21.55 187.08-21.55L187.08-21.55Q183.53-21.55 181.56-19.15 179.58-16.75 179.58-12.4L179.58-12.4Q179.58-7.95 181.56-5.48 183.53-3 187.08-3L187.08-3ZM226.43-13.05L226.43-11.55 208.63-11.55Q208.83-7.3 210.93-5.13 213.03-2.95 216.88-2.95L216.88-2.95Q221.13-2.95 224.68-5.85L224.68-5.85 226.03-2.9Q224.43-1.4 221.93-0.53 219.43 0.35 216.83 0.35L216.83 0.35Q211.13 0.35 207.86-3 204.58-6.35 204.58-12.25L204.58-12.25Q204.58-16 206.03-18.88 207.48-21.75 210.11-23.35 212.73-24.95 216.08-24.95L216.08-24.95Q220.93-24.95 223.68-21.78 226.43-18.6 226.43-13.05L226.43-13.05ZM216.13-21.8Q212.93-21.8 211.01-19.8 209.08-17.8 208.73-14.15L208.73-14.15 222.88-14.15Q222.78-17.85 221.03-19.83 219.28-21.8 216.13-21.8L216.13-21.8ZM241.28-4.4L249.53-24.3 253.58-24.3 243.08 0 239.28 0 228.83-24.3 233.13-24.3 241.28-4.4Z" opacity="1" transform="matrix(1,0,0,1,0,0)" fill="#000000" class="wordmark-text-0" data-fill-palette-color="primary" id="text-0"></path></svg></g></svg></g></svg></g></svg></g><g transform="matrix(1,0,0,1,129.54682580563014,0)"><svg viewBox="0 0 136.42634838873974 136.42634838873974" height="136.42634838873974" width="136.42634838873974"><g><svg></svg></g><g id="icon-0"><svg viewBox="0 0 136.42634838873974 136.42634838873974" height="136.42634838873974" width="136.42634838873974"><g><path d="M0 68.213c0-37.673 30.54-68.213 68.213-68.213 37.673 0 68.213 30.54 68.213 68.213 0 37.673-30.54 68.213-68.213 68.213-37.673 0-68.213-30.54-68.213-68.213zM68.213 131.373c34.882 0 63.16-28.278 63.16-63.16 0-34.882-28.278-63.16-63.16-63.16-34.882 0-63.16 28.278-63.16 63.16 0 34.882 28.278 63.16 63.16 63.16z" data-fill-palette-color="tertiary" fill="#000000" stroke="transparent"></path></g><g transform="matrix(1,0,0,1,28.738335838923213,41.32329936535949)"><svg viewBox="0 0 78.94967671089331 53.77974965802077" height="53.77974965802077" width="78.94967671089331"><g><svg xmlns="http://www.w3.org/2000/svg" xmlns:xlink="http://www.w3.org/1999/xlink" version="1.1" x="0" y="0" viewBox="6.728601932525635 20.096529006958008 82.54122924804688 56.226280212402344" enable-background="new 0 0 96 96.001" xml:space="preserve" height="53.77974965802077" width="78.94967671089331" class="icon-s-0" data-fill-palette-color="accent" id="s-0"><g fill="#ffffff" data-fill-palette-color="accent"><g fill="#ffffff" data-fill-palette-color="accent"><g fill="#ffffff" data-fill-palette-color="accent"><g fill="#ffffff" data-fill-palette-color="accent"><path d="M26.873 20.334c-4.741-0.014-9.381-1.263-13.263 2.11-1.87 1.624-2.299 4.311-2.578 6.603-0.631 5.161 3.508 11.083-3.364 13.324C6.874 42.63 6.32 43.844 7.116 44.46c1.217 0.941 2.534 1.58 3.881 2.321 1.541 0.85 1.672 7.571 1.83 8.996 0.518 4.645-2.014 10.145-0.706 14.59 1.439 4.895 10.028 7.739 14.291 4.704 1.302-0.927 0.055-3.096-1.262-2.158-3.014 2.146-10.304-0.182-10.696-4.099-0.361-3.601 1.004-7.689 0.977-11.355-0.021-2.898-0.081-7.211-0.959-9.933-0.908-2.812-3.42-3.157-5.588-4.834-0.184 0.696-0.367 1.393-0.552 2.089 3.796-1.237 5.835-2.769 5.909-6.976 0.086-4.918-3.096-12.596 3.484-14.983 2.703-0.981 6.338 0.004 9.147 0.012C28.485 22.839 28.485 20.339 26.873 20.334L26.873 20.334z" fill="#000000" data-fill-palette-color="accent"></path></g></g><g fill="#ffffff" data-fill-palette-color="accent"><g fill="#ffffff" data-fill-palette-color="accent"><path d="M69.127 22.834c2.42-0.007 4.821-0.306 7.241-0.291 7.298 0.046 6.105 8.637 5.521 13.517-0.596 4.986 1.211 7.233 5.778 8.722-0.185-0.696-0.368-1.393-0.552-2.089-1.566 1.212-4.622 1.843-5.313 3.983-0.911 2.822-0.803 6.146-1.131 9.102-0.444 3.987 0.4 7.833 0.836 11.765 0.506 4.552-7.022 7.96-10.659 5.371-1.316-0.938-2.563 1.231-1.262 2.158 4.263 3.035 12.852 0.19 14.291-4.704 0.403-1.37 0.155-3.07-0.058-4.448-0.528-3.418-0.861-6.683-0.648-10.142 0.141-2.297 0.593-4.489 0.687-6.79 0.101-2.493 3.391-3.264 5.024-4.527 0.797-0.616 0.242-1.83-0.552-2.089-5.858-1.91-3.765-6.868-3.369-11.584 0.202-2.408-0.23-5.367-1.771-7.325-3.622-4.6-8.899-3.143-14.064-3.128C67.515 20.339 67.515 22.839 69.127 22.834L69.127 22.834z" fill="#000000" data-fill-palette-color="accent"></path></g></g></g><g fill="#ffffff" data-fill-palette-color="accent"><g fill="#ffffff" data-fill-palette-color="accent"><g fill="#ffffff" data-fill-palette-color="accent"><path d="M35.27 51.389c-5.728-2.952-9.439 7.214-3.4 8.823 4.333 1.155 7.525-7.248 3.4-9.136-1.455-0.666-2.726 1.488-1.262 2.158 1.634 0.748 0.089 4.142-1.229 4.547-1.23 0.378-1.668-1.66-1.501-2.457 0.259-1.241 1.433-2.445 2.729-1.777C35.438 54.284 36.703 52.127 35.27 51.389L35.27 51.389z" fill="#000000" data-fill-palette-color="accent"></path></g></g><g fill="#ffffff" data-fill-palette-color="accent"><g fill="#ffffff" data-fill-palette-color="accent"><path d="M46.629 50.639c-2.154 0.781-3.212 2.804-2.837 5.044 0.332 1.985 1.799 3.742 3.916 3.764 2.555 0.026 4.729-2.692 4.443-5.131-0.309-2.632-2.759-4.478-5.347-4.346-1.604 0.081-1.612 2.582 0 2.5 1.323-0.067 2.462 0.608 2.838 1.917 0.354 1.228-0.944 2.57-2.141 2.558-0.77-0.008-1.136-1.135-1.263-1.711-0.195-0.884 0.177-1.866 1.054-2.185C48.796 52.504 48.147 50.087 46.629 50.639L46.629 50.639z" fill="#000000" data-fill-palette-color="accent"></path></g></g><g fill="#ffffff" data-fill-palette-color="accent"><g fill="#ffffff" data-fill-palette-color="accent"><path d="M59.451 51.213c-1.226 1.781-1.3 4.066-0.054 5.859 1.094 1.571 3.086 2.631 5.005 2.063 2.415-0.715 3.265-3.849 2.676-6.033-0.812-3.01-4.29-4.313-6.866-2.65-1.35 0.87-0.098 3.035 1.262 2.158 3.29-2.123 4.363 3.976 1.991 4.185-0.834 0.073-1.651-0.564-2.107-1.284-0.644-1.016-0.393-2.099 0.252-3.036C62.526 51.143 60.358 49.895 59.451 51.213L59.451 51.213z" fill="#000000" data-fill-palette-color="accent"></path></g></g></g></g></svg></g></svg></g></svg></g></svg></g><g></g></svg></g><defs></defs></svg><rect width="395.52" height="218.9120384079359" fill="none" stroke="none" visibility="hidden"></rect></g></svg></g></svg>