<svg viewBox="0 0 724 130" fill="none" xmlns="http://www.w3.org/2000/svg">
<g clip-path="url(#clip0_1_2)">
<path d="M169.63 2.16L94.76 51.85L19.85 2.16C17.9272 0.883097 15.6945 0.150766 13.389 0.0407745C11.0834 -0.0692175 8.79115 0.447236 6.75553 1.53529C4.71991 2.62335 3.01696 4.24238 1.82752 6.22047C0.638082 8.19856 0.0065555 10.4618 7.36095e-06 12.77V117.59C-0.00247411 119.902 0.622492 122.172 1.8083 124.157C2.9941 126.143 4.69631 127.769 6.73353 128.863C8.77074 129.957 11.0666 130.478 13.3765 130.37C15.6864 130.262 17.9237 129.529 19.85 128.25L94.76 78.55L169.63 128.25C171.556 129.529 173.794 130.262 176.104 130.37C178.413 130.478 180.709 129.957 182.746 128.863C184.784 127.769 186.486 126.143 187.672 124.157C188.858 122.172 189.482 119.902 189.48 117.59V12.77C189.473 10.4618 188.842 8.19856 187.652 6.22047C186.463 4.24238 184.76 2.62335 182.724 1.53529C180.689 0.447236 178.397 -0.0692175 176.091 0.0407745C173.785 0.150766 171.553 0.883097 169.63 2.16V2.16ZM23.02 99.45V30.95L74.63 65.2L23.02 99.45ZM166.5 99.45L114.88 65.2L166.5 30.95V99.45Z" fill="#3DBBD2"/>
<path d="M114.88 65.2L121.67 69.7L101.39 82.94L94.76 78.55L114.88 65.2Z" fill="#368A9D"/>
<path d="M88.17 47.46L94.95 51.96L74.67 65.2L68.05 60.81L88.17 47.46Z" fill="#368A9D"/>
<path d="M245.852 1.72283C265.832 1.72283 279.646 14.6264 279.646 33.5178C279.646 52.4092 265.654 65.3129 245.21 65.3129H218.51V1.72283H245.852ZM234.68 52.4092H246.209C256.114 52.4092 263.164 44.7795 263.164 33.6071C263.164 22.4347 255.713 14.6264 245.451 14.6264H234.68V52.4092Z" fill="#21214C"/>
<path d="M334.232 45.0562H299.822C301.366 50.8655 305.543 54.1404 311.361 54.1404C313.547 54.1225 315.708 53.6717 317.719 52.8139C319.73 51.9562 321.551 50.7086 323.078 49.1432L331.341 57.228C326.353 62.6804 318.99 65.8572 309.995 65.8572C294.004 65.8572 284.019 55.8627 284.019 40.9691C284.019 25.7989 294.37 15.8044 309.54 15.8044C326.781 15.8044 335.321 27.1553 334.232 45.0562ZM319.151 36.6054C319.151 30.6087 315.341 26.7002 309.71 26.7002C304.258 26.7002 300.527 30.698 299.528 36.6054H319.151Z" fill="#21214C"/>
<path d="M352.856 65.3129L334.411 16.3487H350.58L361.119 50.9547L371.747 16.3487H387.373L368.927 65.3129H352.856Z" fill="#21214C"/>
<path d="M442.601 8.08539L436.515 20.7124C429.796 16.8038 421.345 14.0732 416.169 14.0732C411.984 14.0732 409.173 15.617 409.173 18.7135C409.173 29.6985 442.78 23.4341 442.78 46.4215C442.78 59.1377 431.518 65.8572 417.347 65.8572C406.794 65.7937 396.564 62.214 388.274 55.6842L394.52 43.2357C401.061 48.9647 410.869 52.7751 417.499 52.7751C422.585 52.7751 425.771 50.8655 425.771 47.2335C425.771 35.9719 392.156 42.6914 392.156 20.1591C392.156 8.44234 402.239 1 417.499 1C426.699 1 436.06 3.81096 442.601 8.08539Z" fill="#21214C"/>
<path d="M497.651 45.0562H463.215C464.759 50.8655 468.944 54.1404 474.753 54.1404C476.939 54.1235 479.101 53.6731 481.112 52.8153C483.123 51.9575 484.944 50.7094 486.47 49.1432L494.742 57.228C489.745 62.6804 482.383 65.8572 473.388 65.8572C457.405 65.8572 447.411 55.8627 447.411 40.9691C447.411 25.7989 457.762 15.8044 472.942 15.8044C490.2 15.8044 498.74 27.1553 497.651 45.0562ZM482.57 36.6054C482.57 30.6087 478.751 26.7002 473.12 26.7002C467.668 26.7002 463.946 30.698 462.947 36.6054H482.57Z" fill="#21214C"/>
<path d="M549.328 26.7983L538.084 33.6071C536.984 32.0053 535.502 30.702 533.773 29.8141C532.045 28.9263 530.122 28.4819 528.179 28.5206C522.093 28.5206 517.917 33.5178 517.917 40.8799C517.917 48.4114 522.093 53.3195 528.179 53.3195C532.641 53.3195 536.085 51.5347 538.174 47.7779L549.623 54.4974C545.625 61.6363 537.718 65.8572 527.367 65.8572C512.286 65.8572 502.113 55.8627 502.113 40.9691C502.113 25.8881 512.375 15.8044 527.545 15.8044C537.246 15.8044 545.063 19.8022 549.328 26.7983Z" fill="#21214C"/>
<path d="M611.74 11.8958L602.379 22.979C598.203 17.8925 592.028 14.7157 586.388 14.7157C576.304 14.7157 568.675 22.747 568.675 33.152C568.675 43.7801 576.304 51.8917 586.388 51.8917C591.742 51.8917 597.926 48.9915 602.379 44.4493L611.83 54.4349C605.012 61.4311 594.928 66.0357 585.576 66.0357C566.408 66.0357 552.148 51.9541 552.148 33.3394C552.148 14.9834 566.765 1.21417 586.12 1.21417C595.725 1.30733 604.914 5.13886 611.74 11.8958Z" fill="#21214C"/>
<path d="M667.415 40.7817C667.415 55.8627 656.707 65.8572 640.706 65.8572C624.706 65.8572 613.935 55.8627 613.935 40.7817C613.935 25.7007 624.644 15.7954 640.706 15.7954C656.769 15.7954 667.415 25.7007 667.415 40.7817ZM629.721 40.9691C629.721 48.5988 634.183 53.6853 640.706 53.6853C647.23 53.6853 651.611 48.5988 651.611 40.9691C651.611 33.3394 647.149 28.2529 640.706 28.2529C634.264 28.2529 629.721 33.4286 629.721 40.9691V40.9691Z" fill="#21214C"/>
<path d="M724 34.4281V65.3129H708.384V38.7828C708.384 33.0627 705.019 29.52 699.745 29.52C694.025 29.52 690.393 33.6071 689.76 39.4253V65.304H674.045V16.3487H689.787V24.38C693.24 18.651 698.871 15.7508 706.135 15.6527C716.915 15.617 724 22.979 724 34.4281Z" fill="#21214C"/>
<path d="M234.507 103.244C234.507 104.505 234.218 105.662 233.639 106.716C233.06 107.749 232.172 108.586 230.973 109.227C229.774 109.868 228.286 110.188 226.509 110.188H223.223V118H217.922V96.238H226.509C228.245 96.238 229.712 96.5377 230.911 97.137C232.11 97.7363 233.009 98.563 233.608 99.617C234.207 100.671 234.507 101.88 234.507 103.244ZM226.106 105.972C227.119 105.972 227.873 105.734 228.369 105.259C228.865 104.784 229.113 104.112 229.113 103.244C229.113 102.376 228.865 101.704 228.369 101.229C227.873 100.754 227.119 100.516 226.106 100.516H223.223V105.972H226.106Z" fill="#21214C"/>
<path d="M245.141 118.248C243.446 118.248 241.917 117.886 240.553 117.163C239.209 116.44 238.145 115.406 237.36 114.063C236.595 112.72 236.213 111.149 236.213 109.351C236.213 107.574 236.605 106.013 237.391 104.67C238.176 103.306 239.251 102.262 240.615 101.539C241.979 100.816 243.508 100.454 245.203 100.454C246.897 100.454 248.427 100.816 249.791 101.539C251.155 102.262 252.229 103.306 253.015 104.67C253.8 106.013 254.193 107.574 254.193 109.351C254.193 111.128 253.79 112.699 252.984 114.063C252.198 115.406 251.113 116.44 249.729 117.163C248.365 117.886 246.835 118.248 245.141 118.248ZM245.141 113.66C246.153 113.66 247.011 113.288 247.714 112.544C248.437 111.8 248.799 110.736 248.799 109.351C248.799 107.966 248.447 106.902 247.745 106.158C247.063 105.414 246.215 105.042 245.203 105.042C244.169 105.042 243.312 105.414 242.63 106.158C241.948 106.881 241.607 107.946 241.607 109.351C241.607 110.736 241.937 111.8 242.599 112.544C243.281 113.288 244.128 113.66 245.141 113.66Z" fill="#21214C"/>
<path d="M281.836 100.702L277.155 118H271.296L268.568 106.778L265.747 118H259.919L255.207 100.702H260.508L262.957 113.071L265.871 100.702H271.482L274.427 113.009L276.845 100.702H281.836Z" fill="#21214C"/>
<path d="M300.164 109.072C300.164 109.568 300.133 110.085 300.071 110.622H288.074C288.156 111.697 288.497 112.523 289.097 113.102C289.717 113.66 290.471 113.939 291.36 113.939C292.682 113.939 293.602 113.381 294.119 112.265H299.761C299.471 113.402 298.944 114.425 298.18 115.334C297.436 116.243 296.495 116.956 295.359 117.473C294.222 117.99 292.951 118.248 291.546 118.248C289.851 118.248 288.342 117.886 287.02 117.163C285.697 116.44 284.664 115.406 283.92 114.063C283.176 112.72 282.804 111.149 282.804 109.351C282.804 107.553 283.165 105.982 283.889 104.639C284.633 103.296 285.666 102.262 286.989 101.539C288.311 100.816 289.83 100.454 291.546 100.454C293.22 100.454 294.708 100.805 296.01 101.508C297.312 102.211 298.324 103.213 299.048 104.515C299.792 105.817 300.164 107.336 300.164 109.072ZM294.739 107.677C294.739 106.768 294.429 106.044 293.809 105.507C293.189 104.97 292.414 104.701 291.484 104.701C290.595 104.701 289.841 104.959 289.221 105.476C288.621 105.993 288.249 106.726 288.105 107.677H294.739Z" fill="#21214C"/>
<path d="M308.261 103.585C308.881 102.634 309.656 101.89 310.586 101.353C311.516 100.795 312.549 100.516 313.686 100.516V106.127H312.229C310.906 106.127 309.914 106.416 309.253 106.995C308.592 107.553 308.261 108.545 308.261 109.971V118H302.96V100.702H308.261V103.585Z" fill="#21214C"/>
<path d="M332.526 109.072C332.526 109.568 332.495 110.085 332.433 110.622H320.436C320.519 111.697 320.86 112.523 321.459 113.102C322.079 113.66 322.833 113.939 323.722 113.939C325.045 113.939 325.964 113.381 326.481 112.265H332.123C331.834 113.402 331.307 114.425 330.542 115.334C329.798 116.243 328.858 116.956 327.721 117.473C326.584 117.99 325.313 118.248 323.908 118.248C322.213 118.248 320.705 117.886 319.382 117.163C318.059 116.44 317.026 115.406 316.282 114.063C315.538 112.72 315.166 111.149 315.166 109.351C315.166 107.553 315.528 105.982 316.251 104.639C316.995 103.296 318.028 102.262 319.351 101.539C320.674 100.816 322.193 100.454 323.908 100.454C325.582 100.454 327.07 100.805 328.372 101.508C329.674 102.211 330.687 103.213 331.41 104.515C332.154 105.817 332.526 107.336 332.526 109.072ZM327.101 107.677C327.101 106.768 326.791 106.044 326.171 105.507C325.551 104.97 324.776 104.701 323.846 104.701C322.957 104.701 322.203 104.959 321.583 105.476C320.984 105.993 320.612 106.726 320.467 107.677H327.101Z" fill="#21214C"/>
<path d="M334.268 109.32C334.268 107.543 334.599 105.982 335.26 104.639C335.942 103.296 336.862 102.262 338.019 101.539C339.177 100.816 340.468 100.454 341.894 100.454C343.031 100.454 344.064 100.692 344.994 101.167C345.945 101.642 346.689 102.283 347.226 103.089V95.06H352.527V118H347.226V115.52C346.73 116.347 346.017 117.008 345.087 117.504C344.178 118 343.114 118.248 341.894 118.248C340.468 118.248 339.177 117.886 338.019 117.163C336.862 116.419 335.942 115.375 335.26 114.032C334.599 112.668 334.268 111.097 334.268 109.32ZM347.226 109.351C347.226 108.028 346.854 106.985 346.11 106.22C345.387 105.455 344.498 105.073 343.444 105.073C342.39 105.073 341.491 105.455 340.747 106.22C340.024 106.964 339.662 107.997 339.662 109.32C339.662 110.643 340.024 111.697 340.747 112.482C341.491 113.247 342.39 113.629 343.444 113.629C344.498 113.629 345.387 113.247 346.11 112.482C346.854 111.717 347.226 110.674 347.226 109.351Z" fill="#21214C"/>
<path d="M368.233 103.151C368.729 102.345 369.442 101.694 370.372 101.198C371.302 100.702 372.366 100.454 373.565 100.454C374.991 100.454 376.282 100.816 377.44 101.539C378.597 102.262 379.506 103.296 380.168 104.639C380.85 105.982 381.191 107.543 381.191 109.32C381.191 111.097 380.85 112.668 380.168 114.032C379.506 115.375 378.597 116.419 377.44 117.163C376.282 117.886 374.991 118.248 373.565 118.248C372.345 118.248 371.281 118.01 370.372 117.535C369.462 117.039 368.749 116.388 368.233 115.582V118H362.932V95.06H368.233V103.151ZM375.797 109.32C375.797 107.997 375.425 106.964 374.681 106.22C373.957 105.455 373.058 105.073 371.984 105.073C370.93 105.073 370.031 105.455 369.287 106.22C368.563 106.985 368.202 108.028 368.202 109.351C368.202 110.674 368.563 111.717 369.287 112.482C370.031 113.247 370.93 113.629 371.984 113.629C373.038 113.629 373.937 113.247 374.681 112.482C375.425 111.697 375.797 110.643 375.797 109.32Z" fill="#21214C"/>
<path d="M401.642 100.702L390.792 126.215H385.088L389.056 117.411L382.019 100.702H387.94L391.939 111.521L395.907 100.702H401.642Z" fill="#21214C"/>
<path d="M490.397 107.853H489.778V118.516H482.102V91.9682L489.778 80V104.771C491.306 102.903 496.454 95.8126 496.454 95.8126H505.93L496.945 105.296L506.24 118.534H496.545L490.397 107.853ZM469.006 106.112L472.153 95.8851H479.756L470.843 118.443C468.188 125.225 464.386 129.813 458.711 129.813C456.528 129.813 454.691 129.251 453.727 128.707L456.783 123.992C457.238 124.047 457.711 124.065 458.184 124.065C460.803 124.065 462.767 121.526 464.041 118.516L454.691 95.8851H463.295L466.66 105.986C467.315 107.908 467.788 111.571 467.788 111.571C467.788 111.571 468.388 108.035 469.006 106.112ZM445.815 105.587C445.815 102.631 444.505 101.235 442.013 101.235C440.795 101.235 439.522 101.579 438.648 102.105V118.516H430.973V96.1027L438.485 95.4861L438.303 99.1491H438.557C440.176 96.9731 442.923 95.3229 446.197 95.3229C450.126 95.3229 453.527 97.7529 453.527 103.501V118.516H445.815V105.587ZM409 117.355L409.691 112.133C412.092 113.312 414.802 113.874 417.076 113.874C418.731 113.874 419.823 113.312 419.823 112.314C419.823 109.449 409.473 110.138 409.473 102.649C409.473 97.8617 413.875 95.3411 419.386 95.3411C422.133 95.3411 424.97 96.0846 426.807 96.7374L426.061 101.869C424.133 101.126 421.514 100.437 419.331 100.437C417.985 100.437 416.894 100.908 416.894 101.779C416.894 104.607 427.462 104.045 427.462 111.353C427.462 116.213 423.133 119.005 417.203 119.005C413.929 119.005 411.274 118.443 409 117.355Z" fill="#21214C"/>
</g>
<defs>
<clipPath id="clip0_1_2">
<rect width="724" height="130" fill="white"/>
</clipPath>
</defs>
</svg>
